name rise45.9887peak57.8056fall74.9286.mot
datacolumns 19
datarows 45
range 0.000000 0.073332
endheader
time	ground_force1_vx	ground_force1_vy	ground_force1_vz	ground_force1_px	ground_force1_py	ground_force1_pz	ground_force2_vx	ground_force2_vy	ground_force2_vz	ground_force2_px	ground_force2_py	ground_force2_pz	ground_torque1_x	ground_torque1_y	ground_torque1_z	ground_torque2_x	ground_torque2_y	ground_torque2_z	
0.000000	-0.442007	710.858383	44.841246	0.257694	0.000000	0.119357	0.000000	0.000000	0.000000	0.000000	0.000000	0.000000	0.000000	36.414097	0.000000	0.000000	0.000000	0.000000	
0.001672	0.184623	710.938287	44.868513	0.258136	0.000000	0.119109	0.000000	0.000000	0.000000	0.000000	0.000000	0.000000	0.000000	35.813042	0.000000	0.000000	0.000000	0.000000	
0.003339	0.805393	711.017755	44.895379	0.258587	0.000000	0.118858	0.000000	0.000000	0.000000	0.000000	0.000000	0.000000	0.000000	35.218415	0.000000	0.000000	0.000000	0.000000	
0.005001	1.417718	711.099183	44.921216	0.259044	0.000000	0.118603	0.000000	0.000000	0.000000	0.000000	0.000000	0.000000	0.000000	34.631429	0.000000	0.000000	0.000000	0.000000	
0.006672	2.019715	711.185115	44.945427	0.259507	0.000000	0.118344	0.000000	0.000000	0.000000	0.000000	0.000000	0.000000	0.000000	34.052558	0.000000	0.000000	0.000000	0.000000	
0.008336	2.610078	711.278100	44.967470	0.259973	0.000000	0.118084	0.000000	0.000000	0.000000	0.000000	0.000000	0.000000	0.000000	33.481712	0.000000	0.000000	0.000000	0.000000	
0.010003	3.187948	711.380561	44.986870	0.260442	0.000000	0.117821	0.000000	0.000000	0.000000	0.000000	0.000000	0.000000	0.000000	32.918426	0.000000	0.000000	0.000000	0.000000	
0.011671	3.752777	711.494693	45.003237	0.260912	0.000000	0.117556	0.000000	0.000000	0.000000	0.000000	0.000000	0.000000	0.000000	32.362031	0.000000	0.000000	0.000000	0.000000	
0.013335	4.304199	711.622383	45.016272	0.261381	0.000000	0.117289	0.000000	0.000000	0.000000	0.000000	0.000000	0.000000	0.000000	31.811815	0.000000	0.000000	0.000000	0.000000	
0.015000	4.841912	711.765168	45.025765	0.261847	0.000000	0.117022	0.000000	0.000000	0.000000	0.000000	0.000000	0.000000	0.000000	31.267149	0.000000	0.000000	0.000000	0.000000	
0.016665	5.365588	711.924210	45.031595	0.262309	0.000000	0.116754	0.000000	0.000000	0.000000	0.000000	0.000000	0.000000	0.000000	30.727585	0.000000	0.000000	0.000000	0.000000	
0.018337	5.874803	712.100305	45.033721	0.262765	0.000000	0.116487	0.000000	0.000000	0.000000	0.000000	0.000000	0.000000	0.000000	30.192918	0.000000	0.000000	0.000000	0.000000	
0.020002	6.368989	712.293912	45.032173	0.263213	0.000000	0.116220	0.000000	0.000000	0.000000	0.000000	0.000000	0.000000	0.000000	29.663222	0.000000	0.000000	0.000000	0.000000	
0.021668	6.847420	712.505192	45.027043	0.263651	0.000000	0.115953	0.000000	0.000000	0.000000	0.000000	0.000000	0.000000	0.000000	29.138844	0.000000	0.000000	0.000000	0.000000	
0.023336	7.309199	712.734061	45.018469	0.264078	0.000000	0.115689	0.000000	0.000000	0.000000	0.000000	0.000000	0.000000	0.000000	28.620390	0.000000	0.000000	0.000000	0.000000	
0.025001	7.753284	712.980246	45.006627	0.264490	0.000000	0.115426	0.000000	0.000000	0.000000	0.000000	0.000000	0.000000	0.000000	28.108687	0.000000	0.000000	0.000000	0.000000	
0.026668	8.178510	713.243341	44.991716	0.264886	0.000000	0.115165	0.000000	0.000000	0.000000	0.000000	0.000000	0.000000	0.000000	27.604728	0.000000	0.000000	0.000000	0.000000	
0.028332	8.583624	713.522854	44.973955	0.265265	0.000000	0.114907	0.000000	0.000000	0.000000	0.000000	0.000000	0.000000	0.000000	27.109623	0.000000	0.000000	0.000000	0.000000	
0.029998	8.967329	713.818258	44.953569	0.265623	0.000000	0.114653	0.000000	0.000000	0.000000	0.000000	0.000000	0.000000	0.000000	26.624540	0.000000	0.000000	0.000000	0.000000	
0.031666	9.328321	714.129021	44.930789	0.265960	0.000000	0.114402	0.000000	0.000000	0.000000	0.000000	0.000000	0.000000	0.000000	26.150654	0.000000	0.000000	0.000000	0.000000	
0.033338	9.665326	714.454635	44.905842	0.266272	0.000000	0.114155	0.000000	0.000000	0.000000	0.000000	0.000000	0.000000	0.000000	25.689105	0.000000	0.000000	0.000000	0.000000	
0.035002	9.977134	714.794630	44.878956	0.266559	0.000000	0.113913	0.000000	0.000000	0.000000	0.000000	0.000000	0.000000	0.000000	25.240955	0.000000	0.000000	0.000000	0.000000	
0.036670	10.262625	715.148586	44.850354	0.266817	0.000000	0.113675	0.000000	0.000000	0.000000	0.000000	0.000000	0.000000	0.000000	24.807169	0.000000	0.000000	0.000000	0.000000	
0.038344	10.520789	715.516132	44.820256	0.267045	0.000000	0.113443	0.000000	0.000000	0.000000	0.000000	0.000000	0.000000	0.000000	24.388593	0.000000	0.000000	0.000000	0.000000	
0.040002	10.750741	715.896938	44.788882	0.267242	0.000000	0.113217	0.000000	0.000000	0.000000	0.000000	0.000000	0.000000	0.000000	23.985946	0.000000	0.000000	0.000000	0.000000	
0.041671	10.951721	716.290712	44.756448	0.267404	0.000000	0.112997	0.000000	0.000000	0.000000	0.000000	0.000000	0.000000	0.000000	23.599822	0.000000	0.000000	0.000000	0.000000	
0.043333	11.123103	716.697187	44.723175	0.267531	0.000000	0.112783	0.000000	0.000000	0.000000	0.000000	0.000000	0.000000	0.000000	23.230694	0.000000	0.000000	0.000000	0.000000	
0.045007	11.264387	717.116106	44.689285	0.267621	0.000000	0.112576	0.000000	0.000000	0.000000	0.000000	0.000000	0.000000	0.000000	22.878923	0.000000	0.000000	0.000000	0.000000	
0.046672	11.375194	717.547214	44.655003	0.267672	0.000000	0.112376	0.000000	0.000000	0.000000	0.000000	0.000000	0.000000	0.000000	22.544775	0.000000	0.000000	0.000000	0.000000	
0.048335	11.455256	717.990244	44.620560	0.267683	0.000000	0.112183	0.000000	0.000000	0.000000	0.000000	0.000000	0.000000	0.000000	22.228430	0.000000	0.000000	0.000000	0.000000	
0.049999	11.504408	718.444915	44.586191	0.267651	0.000000	0.111998	0.000000	0.000000	0.000000	0.000000	0.000000	0.000000	0.000000	21.930001	0.000000	0.000000	0.000000	0.000000	
0.051669	11.522577	718.910920	44.552136	0.267577	0.000000	0.111820	0.000000	0.000000	0.000000	0.000000	0.000000	0.000000	0.000000	21.649544	0.000000	0.000000	0.000000	0.000000	
0.053338	11.509771	719.387927	44.518637	0.267457	0.000000	0.111651	0.000000	0.000000	0.000000	0.000000	0.000000	0.000000	0.000000	21.387069	0.000000	0.000000	0.000000	0.000000	
0.055001	11.466076	719.875577	44.485942	0.267293	0.000000	0.111490	0.000000	0.000000	0.000000	0.000000	0.000000	0.000000	0.000000	21.142552	0.000000	0.000000	0.000000	0.000000	
0.056665	11.391644	720.373487	44.454296	0.267082	0.000000	0.111337	0.000000	0.000000	0.000000	0.000000	0.000000	0.000000	0.000000	20.915937	0.000000	0.000000	0.000000	0.000000	
0.058338	11.286690	720.881252	44.423946	0.266823	0.000000	0.111192	0.000000	0.000000	0.000000	0.000000	0.000000	0.000000	0.000000	20.707144	0.000000	0.000000	0.000000	0.000000	
0.060005	11.151488	721.398450	44.395135	0.266517	0.000000	0.111056	0.000000	0.000000	0.000000	0.000000	0.000000	0.000000	0.000000	20.516070	0.000000	0.000000	0.000000	0.000000	
0.061665	10.986371	721.924650	44.368101	0.266161	0.000000	0.110929	0.000000	0.000000	0.000000	0.000000	0.000000	0.000000	0.000000	20.342587	0.000000	0.000000	0.000000	0.000000	
0.063337	10.791725	722.459419	44.343076	0.265757	0.000000	0.110810	0.000000	0.000000	0.000000	0.000000	0.000000	0.000000	0.000000	20.186544	0.000000	0.000000	0.000000	0.000000	
0.065005	10.567992	723.002321	44.320284	0.265304	0.000000	0.110701	0.000000	0.000000	0.000000	0.000000	0.000000	0.000000	0.000000	20.047762	0.000000	0.000000	0.000000	0.000000	
0.066679	10.315670	723.552935	44.299939	0.264802	0.000000	0.110600	0.000000	0.000000	0.000000	0.000000	0.000000	0.000000	0.000000	19.926037	0.000000	0.000000	0.000000	0.000000	
0.068338	10.035311	724.110847	44.282241	0.264250	0.000000	0.110507	0.000000	0.000000	0.000000	0.000000	0.000000	0.000000	0.000000	19.821130	0.000000	0.000000	0.000000	0.000000	
0.070001	9.727520	724.675668	44.267382	0.263650	0.000000	0.110423	0.000000	0.000000	0.000000	0.000000	0.000000	0.000000	0.000000	19.732772	0.000000	0.000000	0.000000	0.000000	
0.071672	9.392961	725.247026	44.255537	0.263002	0.000000	0.110348	0.000000	0.000000	0.000000	0.000000	0.000000	0.000000	0.000000	19.660660	0.000000	0.000000	0.000000	0.000000	
0.073332	9.032348	725.824577	44.246867	0.262305	0.000000	0.110281	0.000000	0.000000	0.000000	0.000000	0.000000	0.000000	0.000000	19.604453	0.000000	0.000000	0.000000	0.000000	
